<?xml version="1.0" encoding="UTF-8"?>
<svg id="Camada_2" xmlns="http://www.w3.org/2000/svg" viewBox="0 0 593.68 204.18">
  <defs>
    <style>
      .cls-1 {
        fill: #e0e0e0;
      }

      .cls-2 {
        fill: #059669;
      }
    </style>
  </defs>
  <g id="Camada_1-2" data-name="Camada_1">
    <path class="cls-2" d="M586.07,99.9c-6.51,0-9.77-3.78-9.77-11.34V22.3c0-14.87-7.61-22.3-22.81-22.3h-5.44v4.19h6.95c11.3,0,16.95,6.04,16.95,18.11v66.26c0,3.93.54,6.91,1.63,8.94,1.17,2.12,3.06,3.75,5.32,4.59-2.26.84-4.15,2.47-5.32,4.58-1.09,2.05-1.63,5.07-1.63,8.95v66.31c0,12.07-5.65,18.1-16.95,18.1h-6.95v4.16h5.44c15.21,0,22.81-7.43,22.81-22.3v-66.31c0-7.71,3.26-11.57,9.77-11.57h7.61v-4.14l-7.61.04Z"/>
    <path class="cls-2" d="M7.61,99.9c6.51,0,9.77-3.78,9.77-11.34V22.3C17.39,7.43,24.99,0,40.19,0h5.44v4.19h-6.95c-11.3,0-16.95,6.04-16.95,18.11v66.26c0,3.93-.54,6.91-1.63,8.94-1.17,2.12-3.06,3.75-5.32,4.59,2.26.84,4.15,2.47,5.32,4.58,1.09,2.05,1.63,5.07,1.63,8.95v66.31c0,12.07,5.65,18.1,16.95,18.1h6.95v4.16h-5.44c-15.21,0-22.81-7.43-22.81-22.3v-66.31c0-7.71-3.26-11.57-9.77-11.57H0v-4.14l7.61.04Z"/>
    <g>
      <path class="cls-1" d="M84.16,69.34h19.84c1.66,0,3.07.58,4.23,1.74s1.74,2.57,1.74,4.23c0,1.76-.63,3.21-1.89,4.37-1.26,1.16-2.62,1.74-4.09,1.74h-18.94c-1.85-.02-3.46.84-4.83,2.6l-16.76,21.56c-1.42,1.71-2.13,4.08-2.12,7.11v33.07c0,1.71.58,3.15,1.74,4.34,1.16,1.19,2.57,1.78,4.23,1.78h24.31c1.61,0,3.01-.59,4.19-1.78,1.18-1.18,1.78-2.58,1.78-4.19v-12.94h-12.37c-1.71,0-3.13-.58-4.27-1.74-1.14-1.16-1.71-2.57-1.71-4.23s.57-3.07,1.71-4.23c1.14-1.16,2.56-1.74,4.27-1.74h24.31v24.88c0,4.93-1.76,9.15-5.26,12.65-3.51,3.51-7.73,5.26-12.65,5.26h-24.31c-4.98,0-9.23-1.75-12.76-5.26-3.53-3.51-5.3-7.72-5.3-12.65v-33.06c0-5.93,1.59-10.92,4.76-15l17.63-22.4c1.28-1.71,3.07-3.15,5.37-4.34,2.3-1.18,4.68-1.78,7.15-1.78Z"/>
      <path class="cls-1" d="M197.63,134.53v5.26c0,6.59-2.34,12.24-7,16.95-4.67,4.72-10.3,7.07-16.89,7.07h-36.54v-94.48h36.54c6.59,0,12.22,2.35,16.89,7.04,4.67,4.69,7,10.36,7,16.99v5.05c0,7.06-2.73,13.08-8.18,18.06,5.45,5.07,8.18,11.09,8.18,18.06ZM185.4,98.27v-4.91c0-3.32-1.17-6.16-3.52-8.53s-5.16-3.55-8.42-3.55h-24.32v28.94h24.32c3.22,0,6.02-1.17,8.39-3.52,2.37-2.35,3.55-5.15,3.55-8.42ZM185.4,139.79v-4.98c0-3.32-1.17-6.16-3.52-8.53-2.35-2.37-5.16-3.56-8.42-3.56h-24.17v29.01h24.17c3.22,0,6.02-1.17,8.39-3.52,2.37-2.34,3.55-5.15,3.55-8.42Z"/>
      <path class="cls-1" d="M249.32,126.14h12.09c1.61,0,3.01.58,4.19,1.74,1.18,1.16,1.77,2.57,1.77,4.23v10.17c0,1.66-.58,3.09-1.74,4.3-1.16,1.21-2.57,1.81-4.23,1.81h-12.23c-1.66,0-3.07-.59-4.23-1.78s-1.74-2.58-1.74-4.19v-10.31c0-1.66.59-3.07,1.77-4.23,1.19-1.16,2.63-1.74,4.34-1.74Z"/>
      <path class="cls-1" d="M319.21,69.34h23.61c3.08.05,6.08,1.04,9,2.99,2.91,1.94,5.06,4.29,6.43,7.04l11.8,23.89c2.23,4.31,3.34,8.82,3.34,13.51,0,4.36-1.18,8.84-3.55,13.44l-11.87,23.6c-1.52,3.04-3.7,5.47-6.54,7.29-2.84,1.83-6.02,2.74-9.53,2.74h-22.82c-1.66,0-3.07-.59-4.23-1.77-1.16-1.19-1.74-2.59-1.74-4.19s.58-3.09,1.74-4.3,2.57-1.81,4.23-1.81h6.26v-70.31h-6.12c-1.66,0-3.07-.6-4.23-1.81-1.16-1.21-1.74-2.64-1.74-4.3s.58-3.01,1.74-4.19c1.16-1.18,2.57-1.78,4.23-1.78ZM337.27,81.42v70.45h4.18c2.65-.01,4.64-1.32,5.96-3.92l11.8-23.46c1.47-3.08,2.21-5.66,2.23-7.74,0-2.6-.59-5.06-1.78-7.39l-12.22-24.32c-1.28-2.42-3.36-3.62-6.26-3.62h-3.91Z"/>
      <path class="cls-1" d="M455.5,81.42h-42.23v29.08h18.2c1.61,0,3.01.59,4.19,1.78,1.19,1.19,1.78,2.58,1.78,4.19,0,1.7-.58,3.15-1.74,4.34-1.16,1.19-2.57,1.77-4.23,1.77h-18.2v29.29h42.38c1.61,0,3.01.58,4.19,1.74,1.18,1.16,1.77,2.57,1.77,4.23s-.6,3.07-1.81,4.23c-1.21,1.16-2.64,1.74-4.3,1.74h-54.18v-94.48h54.18c1.66,0,3.09.6,4.3,1.81,1.21,1.21,1.81,2.64,1.81,4.3s-.6,3.01-1.81,4.19c-1.21,1.19-2.64,1.78-4.3,1.78Z"/>
      <path class="cls-1" d="M549.7,75.45v21.97l-24.34,61.91c-1.23,2.99-3.17,4.49-5.82,4.49-2.79,0-4.77-1.49-5.95-4.48l-24.17-61.92v-21.97c0-1.71.58-3.15,1.75-4.34,1.16-1.18,2.57-1.78,4.24-1.78s3.07.59,4.24,1.78c1.17,1.18,1.75,2.63,1.75,4.33v19.47l18.18,46.36,18.17-46.22v-19.61c0-1.71.58-3.15,1.75-4.33,1.16-1.18,2.58-1.78,4.24-1.78s3.07.59,4.24,1.78c1.17,1.19,1.75,2.63,1.75,4.34Z"/>
    </g>
  </g>
</svg>